<svg width="189" height="18" viewBox="0 0 189 18" fill="none" xmlns="http://www.w3.org/2000/svg">
<path d="M0.901758 11.204C0.703758 13.074 2.92576 16.308 8.16176 16.308C12.4298 16.308 14.3658 14.68 14.3658 11.996C14.3658 9.26798 11.8798 8.47598 8.66776 7.99198C5.45576 7.44198 4.02576 7.19998 4.02576 5.76998C4.02576 4.47198 5.36776 3.96598 7.30376 3.96598C9.34976 3.96598 10.8238 4.69198 10.9118 6.40798H13.7938C13.8158 3.37198 11.5278 1.47998 7.43576 1.47998C3.27776 1.47998 1.05576 3.17398 1.05576 5.70398C1.05576 8.36598 3.69576 9.28998 7.01776 9.83998C9.98776 10.236 11.4838 10.566 11.4838 11.908C11.4838 13.096 10.4058 13.866 8.24976 13.844C5.87376 13.822 4.04776 12.766 3.87176 11.204H0.901758Z" fill="white"/>
<path d="M29.3551 1.78798V9.72998C29.3551 13.052 27.1771 13.756 24.3171 13.756C21.3691 13.756 19.2351 13.052 19.2351 9.72998V1.78798H16.2871V10.038C16.2871 14.768 19.8511 16.308 24.3171 16.308C28.6291 16.308 32.2811 14.768 32.2811 10.038V1.78798H29.3551Z" fill="white"/>
<path d="M49.5921 11.952C49.5921 9.61998 47.7221 9.00398 45.3021 8.82798C47.6121 8.51998 49.0641 7.66198 49.0641 5.50598C49.0641 3.06398 47.0181 1.78798 43.2121 1.78798H35.0061V16H44.0261C47.3261 15.934 49.5921 14.68 49.5921 11.952ZM43.3001 4.22998C44.9501 4.22998 46.0061 4.75798 46.0061 6.05598C46.0061 7.39798 44.9941 8.10198 43.1461 8.10198H37.9541V4.22998H43.3001ZM43.7401 13.536H37.9541V9.77398H43.4541C45.1261 9.77398 46.6001 10.126 46.6001 11.644C46.6001 12.964 45.5881 13.536 43.7401 13.536Z" fill="white"/>
<path d="M65.2841 1.78798H50.2581V4.25198H56.3081V16H59.2341V4.25198H65.2841V1.78798Z" fill="white"/>
<path d="M78.257 9.81798C80.303 9.46598 81.843 8.49798 81.843 6.09998C81.843 3.08598 79.687 1.78798 76.387 1.78798H66.729V16H69.677V10.764H75.045C77.355 10.764 78.609 11.204 78.609 12.832L78.631 16H81.535V12.612C81.535 10.61 80.479 9.99398 78.257 9.81798ZM69.677 8.45398V4.31798H76.387C77.883 4.31798 78.939 4.95598 78.917 6.25398C78.917 7.61798 77.883 8.45398 76.387 8.45398H69.677Z" fill="white"/>
<path d="M96.3448 16H99.5348L92.8028 1.78798H89.6128L82.9248 16H86.0928L87.5668 12.766H94.8708L96.3448 16ZM88.5568 10.588L91.2188 4.73598L93.8808 10.588H88.5568Z" fill="white"/>
<path d="M116.824 10.874H113.92C113.326 12.7 111.632 13.822 108.728 13.822C105.12 13.822 102.7 12.15 102.7 8.93798C102.7 5.72598 105.12 4.03198 108.728 4.03198C111.632 4.03198 113.348 5.17598 113.942 7.00198H116.846C116.472 3.52598 113.524 1.47998 108.728 1.47998C103.382 1.47998 99.7077 4.03198 99.7077 8.93798C99.7077 13.822 103.382 16.308 108.728 16.308C113.524 16.308 116.45 14.328 116.824 10.874Z" fill="white"/>
<path d="M132.361 1.78798H117.335V4.25198H123.385V16H126.311V4.25198H132.361V1.78798Z" fill="white"/>
<path fill-rule="evenodd" clip-rule="evenodd" d="M150.43 15.1035C148.656 16.5729 146.154 17.308 143.164 17.308C140.164 17.308 137.661 16.5733 135.89 15.1029C134.094 13.6123 133.166 11.4606 133.166 8.89398C133.166 6.32741 134.094 4.17566 135.89 2.68502C137.661 1.21469 140.164 0.47998 143.164 0.47998C146.154 0.47998 148.656 1.21507 150.43 2.68446C152.227 4.17406 153.162 6.32533 153.162 8.89398C153.162 11.4626 152.227 13.6139 150.43 15.1035ZM139.524 11.7569C140.394 12.397 141.667 12.756 143.164 12.756C144.661 12.756 145.907 12.3971 146.752 11.7627C147.56 11.156 148.082 10.242 148.082 8.89398C148.082 7.57204 147.563 6.66178 146.752 6.05273C145.905 5.41702 144.658 5.05398 143.164 5.05398C141.67 5.05398 140.396 5.41724 139.524 6.05855C138.688 6.67338 138.158 7.58449 138.158 8.89398C138.158 10.2296 138.692 11.1445 139.524 11.7569ZM166.866 0.78798H171.792V17H167.459L158.284 8.05372V17H153.336V0.78798H157.692L166.866 9.77118V0.78798ZM167.866 12.15L157.284 1.78798H154.336V16H157.284V5.68198L167.866 16H170.792V1.78798H167.866V12.15ZM185.408 8.01398V9.81798H176.454V13.58H187.432V16H173.506V1.78798H187.41V4.22998H176.454V8.01398H185.408ZM177.454 7.01398H186.408V10.818H177.454V12.58H188.432V17H172.506V0.78798H188.41V5.22998H177.454V7.01398ZM152.162 8.89398C152.162 13.514 148.84 16.308 143.164 16.308C137.466 16.308 134.166 13.514 134.166 8.89398C134.166 4.27398 137.466 1.47998 143.164 1.47998C148.84 1.47998 152.162 4.27398 152.162 8.89398ZM137.158 8.89398C137.158 12.194 139.886 13.756 143.164 13.756C146.442 13.756 149.082 12.194 149.082 8.89398C149.082 5.63798 146.442 4.05398 143.164 4.05398C139.886 4.05398 137.158 5.63798 137.158 8.89398Z" fill="white"/>
</svg>
