<svg width="212" height="16" viewBox="0 0 212 16" fill="none" xmlns="http://www.w3.org/2000/svg">
<g clip-path="url(#clip0)">
<path d="M0.0121096 10.2899C-0.18589 12.1599 2.03611 15.3939 7.27211 15.3939C11.5401 15.3939 13.4761 13.7659 13.4761 11.0819C13.4761 8.35392 10.9901 7.56192 7.77811 7.07792C4.56611 6.52792 3.13611 6.28592 3.13611 4.85592C3.13611 3.55792 4.47811 3.05192 6.41411 3.05192C8.46011 3.05192 9.93411 3.77792 10.0221 5.49392H12.9041C12.9261 2.45792 10.6381 0.565918 6.54611 0.565918C2.38811 0.565918 0.16611 2.25992 0.16611 4.78992C0.16611 7.45192 2.80611 8.37592 6.12811 8.92592C9.09811 9.32192 10.5941 9.65192 10.5941 10.9939C10.5941 12.1819 9.51611 12.9519 7.36011 12.9299C4.98411 12.9079 3.15811 11.8519 2.98211 10.2899H0.0121096Z" fill="white"/>
<path d="M28.4655 0.873918V8.81592C28.4655 12.1379 26.2875 12.8419 23.4275 12.8419C20.4795 12.8419 18.3455 12.1379 18.3455 8.81592V0.873918H15.3975V9.12392C15.3975 13.8539 18.9615 15.3939 23.4275 15.3939C27.7395 15.3939 31.3915 13.8539 31.3915 9.12392V0.873918H28.4655Z" fill="white"/>
<path d="M48.7024 11.0379C48.7024 8.70592 46.8324 8.08992 44.4124 7.91392C46.7224 7.60592 48.1744 6.74792 48.1744 4.59192C48.1744 2.14992 46.1284 0.873918 42.3224 0.873918H34.1164V15.0859H43.1364C46.4364 15.0199 48.7024 13.7659 48.7024 11.0379ZM42.4104 3.31592C44.0604 3.31592 45.1164 3.84392 45.1164 5.14192C45.1164 6.48392 44.1044 7.18792 42.2564 7.18792H37.0644V3.31592H42.4104ZM42.8504 12.6219H37.0644V8.85992H42.5644C44.2364 8.85992 45.7104 9.21192 45.7104 10.7299C45.7104 12.0499 44.6984 12.6219 42.8504 12.6219Z" fill="white"/>
<path d="M64.3944 0.873918H49.3684V3.33792H55.4184V15.0859H58.3444V3.33792H64.3944V0.873918Z" fill="white"/>
<path d="M77.3674 8.90392C79.4134 8.55192 80.9534 7.58392 80.9534 5.18592C80.9534 2.17192 78.7974 0.873918 75.4974 0.873918H65.8394V15.0859H68.7874V9.84992H74.1554C76.4654 9.84992 77.7194 10.2899 77.7194 11.9179L77.7414 15.0859H80.6454V11.6979C80.6454 9.69592 79.5894 9.07992 77.3674 8.90392ZM68.7874 7.53992V3.40392H75.4974C76.9934 3.40392 78.0494 4.04192 78.0274 5.33992C78.0274 6.70392 76.9934 7.53992 75.4974 7.53992H68.7874Z" fill="white"/>
<path d="M95.4552 15.0859H98.6451L91.9132 0.873918H88.7232L82.0351 15.0859H85.2031L86.6772 11.8519H93.9812L95.4552 15.0859ZM87.6672 9.67392L90.3292 3.82192L92.9911 9.67392H87.6672Z" fill="white"/>
<path d="M115.934 9.95992H113.03C112.436 11.7859 110.742 12.9079 107.838 12.9079C104.23 12.9079 101.81 11.2359 101.81 8.02392C101.81 4.81192 104.23 3.11792 107.838 3.11792C110.742 3.11792 112.458 4.26192 113.052 6.08792H115.956C115.582 2.61192 112.634 0.565918 107.838 0.565918C102.492 0.565918 98.8181 3.11792 98.8181 8.02392C98.8181 12.9079 102.492 15.3939 107.838 15.3939C112.634 15.3939 115.56 13.4139 115.934 9.95992Z" fill="white"/>
<path d="M131.471 0.873918H116.445V3.33792H122.495V15.0859H125.421V3.33792H131.471V0.873918Z" fill="white"/>
<path fill-rule="evenodd" clip-rule="evenodd" d="M134.776 1.9612C137.023 0.637487 140.462 0 145.282 0C150.102 0 153.541 0.637487 155.787 1.9612C156.921 2.62904 157.755 3.47383 158.302 4.4965C158.847 5.51658 159.092 6.68506 159.092 7.98C159.092 9.27494 158.847 10.4434 158.302 11.4635C157.755 12.4862 156.921 13.331 155.787 13.9988C153.541 15.3225 150.102 15.96 145.282 15.96C140.462 15.96 137.023 15.3225 134.776 13.9988C133.642 13.331 132.808 12.4862 132.262 11.4635C131.716 10.4434 131.472 9.27494 131.472 7.98C131.472 6.68506 131.716 5.51658 132.262 4.4965C132.808 3.47383 133.642 2.62904 134.776 1.9612ZM133.143 4.968C132.692 5.81242 132.472 6.81094 132.472 7.98C132.472 9.14906 132.692 10.1476 133.143 10.992C133.594 11.8338 134.289 12.551 135.283 13.1372C137.294 14.3215 140.51 14.96 145.282 14.96C150.054 14.96 153.27 14.3215 155.28 13.1372C156.275 12.551 156.97 11.8338 157.42 10.992C157.871 10.1476 158.092 9.14906 158.092 7.98C158.092 6.81094 157.871 5.81242 157.42 4.968C156.97 4.12617 156.275 3.40896 155.28 2.8228C153.27 1.63851 150.054 1 145.282 1C140.51 1 137.294 1.63851 135.283 2.8228C134.289 3.40896 133.594 4.12617 133.143 4.968ZM160.293 0.44H166.43L180.313 8.62292V0.44H186.813V15.52H180.679L166.793 7.50397V15.52H160.293V0.44ZM161.293 1.44V14.52H165.793V5.77203L180.947 14.52H185.813V1.44H181.313V10.3731L166.157 1.44H161.293ZM188.229 0.44H211.405V5.62H194.729V6.38H208.369V9.58H194.729V10.34H211.449V15.52H188.229V0.44ZM189.229 1.44V14.52H210.449V11.34H193.729V8.58H207.369V7.38H193.729V4.62H210.405V1.44H189.229ZM138.607 6.88082C138.337 7.17301 138.192 7.52538 138.192 7.98C138.192 8.46874 138.342 8.84387 138.614 9.15001C138.896 9.46712 139.335 9.73864 139.953 9.95575C141.199 10.3933 143.023 10.56 145.282 10.56C147.542 10.56 149.307 10.3929 150.494 9.95802C151.081 9.74289 151.492 9.47453 151.754 9.16113C152.009 8.85706 152.152 8.47865 152.152 7.98C152.152 7.515 152.013 7.15949 151.76 6.86983C151.499 6.56964 151.088 6.30948 150.499 6.09985C149.309 5.67686 147.541 5.51 145.282 5.51C143.024 5.51 141.197 5.67648 139.949 6.10201C139.328 6.3135 138.889 6.57671 138.607 6.88082ZM139.626 5.15549C141.04 4.67352 143.007 4.51 145.282 4.51C147.555 4.51 149.471 4.67314 150.834 5.15765C151.52 5.40177 152.102 5.73973 152.514 6.21299C152.936 6.69676 153.152 7.29 153.152 7.98C153.152 8.69135 152.94 9.30294 152.521 9.80325C152.109 10.2942 151.527 10.6446 150.838 10.897C149.473 11.3971 147.554 11.56 145.282 11.56C143.008 11.56 141.038 11.3967 139.621 10.8992C138.909 10.6489 138.3 10.3016 137.867 9.81437C137.424 9.31613 137.192 8.70126 137.192 7.98C137.192 7.27962 137.428 6.68324 137.873 6.20199C138.307 5.73266 138.915 5.39775 139.626 5.15549Z" fill="white"/>
</g>
<defs>
<clipPath id="clip0">
<rect width="211.449" height="15.96" fill="white"/>
</clipPath>
</defs>
</svg>
